<svg xmlns="http://www.w3.org/2000/svg" viewBox="0 0 147.1 157.83"><defs><style>.cls-1{fill:#f6bd3a;}.cls-2{fill:#e35a2b;}.cls-3{fill:#eb8c23;}</style></defs><g id="레이어_2" data-name="레이어 2"><g id="레이어_1-2" data-name="레이어 1"><path class="cls-1" d="M63.13,83.87l21-12.17L104.9,83.87l-20.74,12-21-11.68Z"/><path class="cls-1" d="M0,47.8,84.16,0l62.63,35.6L126,71.7,84.16,47.8,21.05,83.63Z"/><line class="cls-2" x1="84.19" y1="95.88" x2="84.14" y2="119.75"/><line class="cls-3" x1="21.12" y1="134.52" x2="84.16" y2="95.84"/><path class="cls-2" d="M4.29,124.25,42.1,72,62.84,60.29l.29,23.58,21-36.07v72l-.27,25.3L63.13,132.48V108.56l-42,26-.05,23.27L4.16,147.93Zm6.08-46.84L0,71.2V47.8l21.05,12V83.63ZM84.16,47.8V23.9l41.52,23.9L126,71.7Z"/><path class="cls-3" d="M83.89,95.88l.27-48.08,20.78,11.88V84l0,24v23.94l-21,13.19.23-25.26m-63,38L21.15,134,62.87,60.32,21.09,83.52l0-15.13,0-8.75L84.34,23.93l-.15,23.91-35.8,69.49,35.8-21.45v23.91Zm104.69-98,0-12,21.13-12.15.16,23.89L126,71.83Z"/><polygon class="cls-2" points="107.65 109.36 83.83 95.85 84 71.94 108.19 85.76 107.65 109.36"/><polygon class="cls-3" points="126.26 98.38 107.65 109.36 107.37 85.46 126.19 74.59 126.26 98.38"/><polygon class="cls-1" points="83.89 95.88 48.39 117.33 61.38 92.12 64.96 85.17 83.89 95.88"/><polygon class="cls-1" points="126.19 74.59 107.39 85.56 84 71.94 104.94 62.35 126.19 74.59"/></g></g></svg>